<svg width="20" height="24" fill="#fff" xmlns="http://www.w3.org/2000/svg"><path d="M5.08 23.55a5.38 5.38 0 0 1-1.25-1.15c-.38-.46-.73-.95-1.06-1.45A14.06 14.06 0 0 1 .99 17.3c-.5-1.5-.74-2.94-.74-4.35a8.1 8.1 0 0 1 1-4.09 5.78 5.78 0 0 1 2.1-2.18 5.6 5.6 0 0 1 2.84-.84c.35 0 .73.05 1.13.15.29.08.64.21 1.07.37l.95.37c.32.12.59.17.8.17.16 0 .39-.05.64-.13.15-.05.42-.14.81-.3l.94-.36c.37-.1.73-.2 1.05-.26.39-.06.78-.08 1.15-.05.7.05 1.36.2 1.94.42a5.23 5.23 0 0 1 2.45 1.96 6.12 6.12 0 0 0-1.96 2.05 5.1 5.1 0 0 0-.63 2.53c.01 1.08.29 2.03.84 2.86a5.33 5.33 0 0 0 1.53 1.53c.3.21.58.36.84.45a12.68 12.68 0 0 1-1.66 3.41c-.43.63-.77 1.1-1.03 1.41-.4.48-.79.84-1.18 1.1a3.22 3.22 0 0 1-2.49.3 9.8 9.8 0 0 1-.85-.32 6.94 6.94 0 0 0-.9-.34 4.52 4.52 0 0 0-1.17-.14 4.67 4.67 0 0 0-2.06.47c-.42.17-.7.29-.86.34a4.47 4.47 0 0 1-.99.17c-.52 0-1-.15-1.49-.45l.02-.01Zm6.85-18.46c-.68.34-1.32.48-1.97.44-.1-.65 0-1.31.27-2.04A5.5 5.5 0 0 1 12.86.55 4.64 4.64 0 0 1 14.75 0c.08.68 0 1.35-.25 2.07a5.94 5.94 0 0 1-1 1.76c-.44.52-.98.95-1.59 1.26h.02Z"/></svg>