<svg width="24" height="24" fill="#fff" xmlns="http://www.w3.org/2000/svg"><path d="M12 0C5.4 0 0 5.4 0 12s5.4 12 12 12 12-5.4 12-12S18.66 0 12 0Zm5.52 17.34c-.24.36-.66.48-1.02.24-2.82-1.74-6.36-2.1-10.56-1.14-.42.12-.78-.18-.9-.54-.12-.42.18-.78.54-.9 4.56-1.02 8.52-.6 11.64 1.32.42.18.48.66.3 1.02Zm1.44-3.3c-.3.42-.84.6-1.26.3a15.55 15.55 0 0 0-11.94-1.38c-.48.12-1.02-.12-1.14-.6-.12-.48.12-1.02.6-1.14 4.38-1.32 9.78-.66 13.5 1.62.36.18.54.78.24 1.2Zm.12-3.36C15.24 8.4 8.82 8.16 5.16 9.3c-.6.18-1.2-.18-1.38-.72-.18-.6.18-1.2.72-1.38 4.26-1.26 11.28-1.02 15.72 1.62.54.3.72 1.02.42 1.56-.3.42-1.02.6-1.56.3Z"/></svg>