<svg width="24" height="20" fill="#fff" xmlns="http://www.w3.org/2000/svg"><path d="M23.95 2.57a10 10 0 0 1-2.82.77A4.96 4.96 0 0 0 23.29.62c-.95.56-2 .96-3.12 1.19a4.92 4.92 0 0 0-8.39 4.48A13.93 13.93 0 0 1 1.64 1.16a4.82 4.82 0 0 0-.67 2.48c0 1.7.87 3.2 2.2 4.1a4.9 4.9 0 0 1-2.24-.62v.06A4.92 4.92 0 0 0 4.88 12a5 5 0 0 1-2.21.09 4.94 4.94 0 0 0 4.6 3.42 9.87 9.87 0 0 1-6.1 2.1c-.39 0-.78-.02-1.17-.07a14 14 0 0 0 7.56 2.21c9.05 0 14-7.5 14-13.98 0-.21 0-.42-.02-.63A9.94 9.94 0 0 0 24 2.59l-.05-.02Z"/></svg>