<?xml version="1.0" standalone="no"?>
<!DOCTYPE svg PUBLIC "-//W3C//DTD SVG 20010904//EN"
 "http://www.w3.org/TR/2001/REC-SVG-20010904/DTD/svg10.dtd">
<svg version="1.0" xmlns="http://www.w3.org/2000/svg"
 width="70.000000pt" height="70.000000pt" viewBox="0 0 70.000000 70.000000"
 preserveAspectRatio="xMidYMid meet">
<metadata>
Created by potrace 1.14, written by Peter Selinger 2001-2017
</metadata>
<g transform="translate(0.000000,70.000000) scale(0.100000,-0.100000)"
fill="#000000" stroke="none">
<path d="M292 668 c-60 -13 -136 -87 -152 -147 -18 -70 -9 -337 13 -378 21
-40 73 -89 110 -104 24 -10 30 -9 42 8 18 26 61 26 79 1 27 -39 117 16 155 95
19 38 21 62 21 200 0 178 -7 208 -67 269 -52 53 -125 74 -201 56z m198 -81 c0
-4 -9 -3 -20 3 -11 6 -20 15 -20 20 0 6 9 5 20 -2 11 -7 20 -16 20 -21z m-125
-139 c9 -8 -18 -59 -42 -80 -23 -21 -97 -53 -88 -39 3 6 13 11 21 11 8 0 13 3
13 8 -5 29 4 52 22 57 11 4 25 17 31 30 9 21 29 27 43 13z m76 -38 c18 0 -5
-32 -30 -41 -24 -10 -25 -11 -8 -21 13 -7 17 -17 13 -34 -7 -25 3 -31 21 -13
8 8 17 8 32 -1 20 -10 22 -9 19 16 -2 15 3 29 10 31 9 4 12 -14 12 -65 l0 -69
-79 -61 c-44 -34 -83 -62 -87 -62 -3 0 -42 28 -85 63 -69 55 -78 66 -76 92 1
21 8 31 22 33 62 11 100 27 134 58 35 31 43 45 66 109 7 18 8 18 17 -7 5 -16
14 -28 19 -28z"/>
<path d="M290 225 c-28 -30 -21 -51 24 -73 32 -16 64 -10 96 16 l23 19 -22 32
c-30 41 -85 44 -121 6z m73 -22 c-7 -2 -19 -2 -25 0 -7 3 -2 5 12 5 14 0 19
-2 13 -5z"/>
</g>
</svg>
