<svg version="1.0" xmlns="http://www.w3.org/2000/svg" width="93.33" height="93.33" viewBox="0 0 70 70" preserveAspectRatio="xMidYMid meet"><g transform="matrix(.1 0 0 -.1 0 70)" fill="#000000" stroke="none"><path d="M292 668c-60-13-136-87-152-147-18-70-9-337 13-378 21-40 73-89 110-104 24-10 30-9 42 8 18 26 61 26 79 1 27-39 117 16 155 95 19 38 21 62 21 200 0 178-7 208-67 269-52 53-125 74-201 56zm198-81c0-4-9-3-20 3s-20 15-20 20c0 6 9 5 20-2s20-16 20-21zM365 448c9-8-18-59-42-80-23-21-97-53-88-39 3 6 13 11 21 11s13 3 13 8c-5 29 4 52 22 57 11 4 25 17 31 30 9 21 29 27 43 13zm76-38c18 0-5-32-30-41-24-10-25-11-8-21 13-7 17-17 13-34-7-25 3-31 21-13 8 8 17 8 32-1 20-10 22-9 19 16-2 15 3 29 10 31 9 4 12-14 12-65v-69l-79-61c-44-34-83-62-87-62-3 0-42 28-85 63-69 55-78 66-76 92 1 21 8 31 22 33 62 11 100 27 134 58 35 31 43 45 66 109 7 18 8 18 17-7 5-16 14-28 19-28z"/><path d="M290 225c-28-30-21-51 24-73 32-16 64-10 96 16l23 19-22 32c-30 41-85 44-121 6zm73-22c-7-2-19-2-25 0-7 3-2 5 12 5s19-2 13-5z"/></g></svg>