<?xml version="1.0" encoding="utf-8"?><svg viewBox="0 0 64 31" xmlns="http://www.w3.org/2000/svg" xmlns:xlink="http://www.w3.org/1999/xlink"><style>:root>svg{display:none}:root>svg:target{display:block}</style><svg fill="#fff" viewBox="0 0 20 24" id="apple" xmlns="http://www.w3.org/2000/svg"><path d="M5.08 23.55a5.38 5.38 0 01-1.25-1.15c-.38-.46-.73-.95-1.06-1.45A14.06 14.06 0 01.99 17.3c-.5-1.5-.74-2.94-.74-4.35a8.1 8.1 0 011-4.09 5.78 5.78 0 012.1-2.18 5.6 5.6 0 012.84-.84c.35 0 .73.05 1.13.15.29.08.64.21 1.07.37l.95.37c.32.12.59.17.8.17.16 0 .39-.05.64-.13.15-.05.42-.14.81-.3l.94-.36c.37-.1.73-.2 1.05-.26.39-.06.78-.08 1.15-.05.7.05 1.36.2 1.94.42a5.23 5.23 0 012.45 1.96 6.12 6.12 0 00-1.96 2.05 5.1 5.1 0 00-.63 2.53c.01 1.08.29 2.03.84 2.86a5.33 5.33 0 001.53 1.53c.3.21.58.36.84.45a12.68 12.68 0 01-1.66 3.41c-.43.63-.77 1.1-1.03 1.41-.4.48-.79.84-1.18 1.1a3.22 3.22 0 01-2.49.3 9.8 9.8 0 01-.85-.32 6.94 6.94 0 00-.9-.34 4.52 4.52 0 00-1.17-.14 4.67 4.67 0 00-2.06.47c-.42.17-.7.29-.86.34a4.47 4.47 0 01-.99.17c-.52 0-1-.15-1.49-.45l.02-.01zm6.85-18.46c-.68.34-1.32.48-1.97.44-.1-.65 0-1.31.27-2.04A5.5 5.5 0 0112.86.55 4.64 4.64 0 0114.75 0c.08.68 0 1.35-.25 2.07a5.94 5.94 0 01-1 1.76c-.44.52-.98.95-1.59 1.26h.02z"/></svg><svg fill="#fff" viewBox="0 0 21 8" id="arrow-left" xmlns="http://www.w3.org/2000/svg"><path d="M.65 4.35a.5.5 0 010-.7L3.83.46a.5.5 0 11.7.71L1.72 4l2.83 2.83a.5.5 0 11-.71.7L.65 4.36zM21 4.5H1v-1h20v1z"/></svg><svg fill="#fff" viewBox="0 0 21 8" id="arrow-right" xmlns="http://www.w3.org/2000/svg"><path d="M20.35 4.35a.5.5 0 000-.7L17.17.46a.5.5 0 10-.7.71L19.29 4l-2.82 2.83a.5.5 0 10.7.7l3.18-3.18zM0 4.5h20v-1H0v1z"/></svg><svg fill="none" viewBox="0 0 24 24" id="facebook" xmlns="http://www.w3.org/2000/svg"><path d="M24 12a12 12 0 10-13.88 11.85v-8.38H7.08V12h3.04V9.36c0-3.01 1.8-4.67 4.54-4.67 1.3 0 2.68.23 2.68.23v2.95h-1.51c-1.49 0-1.96.93-1.96 1.88V12h3.33l-.53 3.47h-2.8v8.38A12 12 0 0024 12z" fill="#fff"/></svg><svg fill="#7A66CC" viewBox="0 0 64 31" id="hystogram" xmlns="http://www.w3.org/2000/svg"><path opacity=".6" d="M.25 8.25h3.5v22.5H.25z"/><path opacity=".3" d="M4.25 18.25h3.5v12.5h-3.5z"/><path opacity=".8" d="M8.25 5.25h3.5v25.5h-3.5z"/><path opacity=".6" d="M12.25 12.25h3.5v18.5h-3.5z"/><path d="M16.25.25h3.5v30.5h-3.5z"/><path opacity=".9" d="M20.25 5.25h3.5v25.5h-3.5z"/><path opacity=".6" d="M24.25 10.25h3.5v20.5h-3.5z"/><path opacity=".8" d="M28.25 3.25h3.5v27.5h-3.5z"/><path opacity=".4" d="M32.25 17.25h3.5v13.5h-3.5z"/><path opacity=".5" d="M36.25 12.25h3.5v18.5h-3.5z"/><path opacity=".55" d="M40.25 8.25h3.5v22.5h-3.5z"/><path opacity=".6" d="M44.25 4.25h3.5v26.5h-3.5z"/><path opacity=".3" d="M48.25 19.25h3.5v11.5h-3.5z"/><path opacity=".2" d="M52.25 24.25h3.5v6.5h-3.5z"/><path opacity=".8" d="M56.25 2.25h3.5v28.5h-3.5zm4 6h3.5v22.5h-3.5z"/></svg><svg fill="none" viewBox="0 0 24 24" id="instagram" xmlns="http://www.w3.org/2000/svg"><path d="M12 0C8.74 0 8.33.01 7.05.07a8.85 8.85 0 00-2.91.56 5.88 5.88 0 00-2.13 1.38A5.86 5.86 0 00.63 4.14c-.3.77-.5 1.64-.56 2.91C.01 8.33 0 8.74 0 12s.01 3.67.07 4.95c.06 1.27.26 2.15.56 2.91a5.88 5.88 0 001.38 2.13 5.87 5.87 0 002.13 1.38c.77.3 1.64.5 2.91.56 1.28.06 1.69.07 4.95.07s3.67-.01 4.95-.07a8.88 8.88 0 002.91-.56 5.9 5.9 0 002.13-1.38 5.86 5.86 0 001.38-2.13c.3-.77.5-1.64.56-2.91.06-1.28.07-1.69.07-4.95s-.01-3.67-.07-4.95a8.87 8.87 0 00-.56-2.91 5.89 5.89 0 00-1.38-2.13A5.85 5.85 0 0019.86.63c-.77-.3-1.64-.5-2.91-.56A83.63 83.63 0 0012 0zm0 2.16c3.2 0 3.58.02 4.85.07 1.17.06 1.8.25 2.23.42.56.21.96.47 1.38.9.42.41.68.81.9 1.37.16.43.36 1.06.4 2.23.07 1.27.08 1.65.08 4.85 0 3.2-.02 3.58-.08 4.85a6.75 6.75 0 01-.42 2.23 3.81 3.81 0 01-.9 1.38 3.74 3.74 0 01-1.38.9 6.5 6.5 0 01-2.23.4c-1.27.07-1.65.08-4.86.08-3.21 0-3.59-.02-4.86-.08a6.8 6.8 0 01-2.23-.42 3.72 3.72 0 01-1.38-.9 3.64 3.64 0 01-.9-1.38 6.81 6.81 0 01-.42-2.23 96.23 96.23 0 01-.06-4.84c0-3.2.01-3.6.06-4.87A6.8 6.8 0 012.6 4.9c.2-.57.48-.96.9-1.38.42-.42.8-.69 1.38-.9A6.64 6.64 0 017.1 2.2c1.27-.04 1.65-.06 4.86-.06l.04.03zm0 3.68a6.16 6.16 0 100 12.32 6.16 6.16 0 100-12.32zM12 16a4 4 0 110-8 4 4 0 010 8zm7.85-10.4a1.44 1.44 0 01-2.88 0 1.44 1.44 0 012.88 0z" fill="#fff"/></svg><svg fill="#fff" viewBox="0 0 24 24" id="spotify" xmlns="http://www.w3.org/2000/svg"><path d="M12 0C5.4 0 0 5.4 0 12s5.4 12 12 12 12-5.4 12-12S18.66 0 12 0zm5.52 17.34c-.24.36-.66.48-1.02.24-2.82-1.74-6.36-2.1-10.56-1.14-.42.12-.78-.18-.9-.54-.12-.42.18-.78.54-.9 4.56-1.02 8.52-.6 11.64 1.32.42.18.48.66.3 1.02zm1.44-3.3c-.3.42-.84.6-1.26.3a15.55 15.55 0 00-11.94-1.38c-.48.12-1.02-.12-1.14-.6-.12-.48.12-1.02.6-1.14 4.38-1.32 9.78-.66 13.5 1.62.36.18.54.78.24 1.2zm.12-3.36C15.24 8.4 8.82 8.16 5.16 9.3c-.6.18-1.2-.18-1.38-.72-.18-.6.18-1.2.72-1.38 4.26-1.26 11.28-1.02 15.72 1.62.54.3.72 1.02.42 1.56-.3.42-1.02.6-1.56.3z"/></svg><svg fill="#fff" viewBox="0 0 24 20" id="twitter" xmlns="http://www.w3.org/2000/svg"><path d="M23.95 2.57a10 10 0 01-2.82.77A4.96 4.96 0 0023.29.62c-.95.56-2 .96-3.12 1.19a4.92 4.92 0 00-8.39 4.48A13.93 13.93 0 011.64 1.16a4.82 4.82 0 00-.67 2.48c0 1.7.87 3.2 2.2 4.1a4.9 4.9 0 01-2.24-.62v.06A4.92 4.92 0 004.88 12a5 5 0 01-2.21.09 4.94 4.94 0 004.6 3.42 9.87 9.87 0 01-6.1 2.1c-.39 0-.78-.02-1.17-.07a14 14 0 007.56 2.21c9.05 0 14-7.5 14-13.98 0-.21 0-.42-.02-.63A9.94 9.94 0 0024 2.59l-.05-.02z"/></svg><svg fill="#fff" viewBox="0 0 24 18" id="youtube" xmlns="http://www.w3.org/2000/svg"><path d="M23.5 3.2a3 3 0 00-2.09-2.09c-1.87-.5-9.4-.5-9.4-.5s-7.5 0-9.4.5a3 3 0 00-2.09 2.1A31.26 31.26 0 000 9c0 1.94.17 3.88.52 5.79a3 3 0 002.1 2.08c1.86.5 9.4.5 9.4.5s7.5 0 9.39-.5a3 3 0 002.09-2.09c.34-1.9.51-3.84.5-5.78a31.26 31.26 0 00-.5-5.8zM9.6 12.6V5.4l6.27 3.61-6.26 3.6z"/></svg></svg>